#!OML:ASF H:\Punching\Project 1\Capture day 1\Session 1\female.ASF
:FULLY-SPECIFIED
:DEGREES
4701
root 2.76233 15.7079 2.49522 -352.489 212.792 4.96854
lowerback -3.45942 1.28516 6.57595
upperback -4.91257 1.39213 1.20805
thorax -3.01246 0.385185 -2.41173
lowerneck -9.35388 11.5224 14.9461
upperneck 37.1306 15.6642 -13.1284
head 17.8307 6.01186 -6.00791
rclavicle 3.88935e-014 1.98785e-016
rhumerus -26.5346 -3.53662 -68.3122
rradius 25.4768
rwrist 11.7426
rhand -14.0233 -5.18102
rfingers 7.12502
rthumb 12.1066 -34.8108
lclavicle 3.88935e-014 1.98785e-016
lhumerus -50.4408 2.59362 75.5358
lradius 40.3011
lwrist -14.9548
lhand -3.12652 10.8186
lfingers 7.12502
lthumb 22.5925 39.5165
rfemur -17.4822 0.802003 28.4415
rtibia 24.0379
rfoot -18.7294 -13.6418
rtoes -8.87589
lfemur -38.9295 1.75652 -22.3782
ltibia 42.0491
lfoot -18.4431 21.8464
ltoes -1.31324
4702
root 2.73999 15.706 2.4222 -352.603 213.083 5.17934
lowerback -3.50751 1.32625 6.64553
upperback -4.90094 1.44092 1.25388
thorax -2.96891 0.409044 -2.40142
lowerneck -9.29557 11.5621 14.9986
upperneck 37.0751 15.7602 -13.209
head 17.8252 6.05776 -6.03174
rclavicle 2.57799e-015 -2.60408e-014
rhumerus -26.0671 -3.22858 -68.5472
rradius 25.6367
rwrist 11.4075
rhand -13.9451 -5.31056
rfingers 7.12502
rthumb 12.182 -34.9358
lclavicle 2.57799e-015 -2.60408e-014
lhumerus -50.5971 2.65762 75.4095
lradius 40.2434
lwrist -14.8627
lhand -3.26347 10.7849
lfingers 7.12502
lthumb 22.4611 39.4988
rfemur -16.9744 0.604313 28.7415
rtibia 23.6411
rfoot -18.6955 -13.7104
rtoes -8.54618
lfemur -38.868 1.83172 -22.5502
ltibia 40.3503
lfoot -18.9454 23.1576
ltoes 0.172576
4703
root 2.71645 15.7039 2.34909 -352.715 213.378 5.39106
lowerback -3.5745 1.37287 6.71153
upperback -4.88912 1.49509 1.29635
thorax -2.914 0.435944 -2.39206
lowerneck -9.24554 11.598 15.0467
upperneck 37.0258 15.8466 -13.2769
head 17.8207 6.10037 -6.05072
rclavicle 4.17075e-014 1.13307e-014
rhumerus -25.6266 -2.94983 -68.7837
rradius 25.8019
rwrist 11.0394
rhand -13.9165 -5.39693
rfingers 7.12502
rthumb 12.2096 -35.0206
lclavicle 4.17075e-014 1.13307e-014
lhumerus -50.7348 2.69911 75.2936
lradius 40.1576
lwrist -14.7828
lhand -3.39748 10.7627
lfingers 7.12502
lthumb 22.3324 39.4921
rfemur -16.463 0.396566 29.0372
rtibia 23.2289
rfoot -18.6268 -13.7634
rtoes -8.15579
lfemur -38.7788 1.90716 -22.7212
ltibia 38.6989
lfoot -19.5031 24.5038
ltoes 1.73315
4704
root 2.6921 15.7015 2.27637 -352.818 213.667 5.6131
lowerback -3.6636 1.42545 6.77903
upperback -4.88261 1.5545 1.33843
thorax -2.85168 0.465181 -2.38328
lowerneck -9.20476 11.6335 15.0922
upperneck 36.9822 15.9289 -13.3339
head 17.8191 6.14188 -6.0648
rclavicle 4.10987e-014 -3.35946e-014
rhumerus -25.2093 -2.68297 -69.0305
rradius 25.9651
rwrist 10.673
rhand -13.9636 -5.41281
rfingers 7.12502
rthumb 12.1642 -35.0392
lclavicle 4.10987e-014 -3.35946e-014
lhumerus -50.861 2.726 75.1828
lradius 40.0559
lwrist -14.7185
lhand -3.504 10.7602
lfingers 7.12502
lthumb 22.2302 39.5018
rfemur -15.9717 0.180971 29.3366
rtibia 22.811
rfoot -18.5291 -13.7917
rtoes -7.70661
lfemur -38.6906 2.00124 -22.8893
ltibia 37.123
lfoot -20.1332 25.8561
ltoes 3.41244
4705
root 2.66718 15.6986 2.20373 -352.906 213.958 5.83148
lowerback -3.77398 1.48339 6.83425
upperback -4.88433 1.61883 1.37364
thorax -2.78555 0.496841 -2.3741
lowerneck -9.16563 11.6643 15.1426
upperneck 36.9463 15.998 -13.3773
head 17.818 6.18017 -6.07643
rclavicle -5.82377e-014 -2.66371e-014
rhumerus -24.8298 -2.43842 -69.29
rradius 26.134
rwrist 10.3098
rhand -14.1028 -5.36838
rfingers 7.12502
rthumb 12.03 -35.0026
lclavicle -5.82377e-014 -2.66371e-014
lhumerus -50.9724 2.72475 75.077
lradius 39.9355
lwrist -14.6708
lhand -3.57566 10.7724
lfingers 7.12502
lthumb 22.1614 39.5221
rfemur -15.4999 -0.0349912 29.6284
rtibia 22.3966
rfoot -18.4223 -13.811
rtoes -7.19757
lfemur -38.6119 2.14063 -23.0823
ltibia 35.6459
lfoot -20.7959 27.1892
ltoes 5.11386
